<svg width="48" height="48" viewBox="0 0 48 48" fill="none" xmlns="http://www.w3.org/2000/svg">
<path d="M22.5 9.06573C19.4691 7.12558 15.8649 6 12 6C9.72355 6 7.53512 6.39071 5.50013 7.10997C4.90074 7.32183 4.5 7.88851 4.5 8.52423V37.0242C4.5 37.5112 4.73636 37.9678 5.13392 38.2489C5.53148 38.5301 6.04077 38.6008 6.49987 38.4385C8.21823 37.8311 10.0688 37.5 12 37.5C15.99 37.5 19.6465 38.9145 22.5 41.2714V9.06573Z" fill="#142181"/>
<path d="M25.5 41.2714C28.3535 38.9145 32.01 37.5 36 37.5C37.9312 37.5 39.7818 37.8311 41.5001 38.4385C41.9592 38.6008 42.4685 38.5301 42.8661 38.2489C43.2636 37.9678 43.5 37.5112 43.5 37.0242V8.52423C43.5 7.88851 43.0993 7.32183 42.4999 7.10997C40.4649 6.39071 38.2765 6 36 6C32.1351 6 28.5309 7.12558 25.5 9.06573V41.2714Z" fill="#142181"/>
</svg>
