<svg width="205" height="60" viewBox="0 0 205 60" fill="none" xmlns="http://www.w3.org/2000/svg">
<rect width="205" height="60" rx="8" fill="#142181"/>
<path d="M25.5978 37V23.68H34.5258V25.804H28.0458V29.188H33.7158V31.258H28.0458V34.876H34.6158V37H25.5978ZM36.826 37V27.46H39.22V28.828H39.328C39.424 28.66 39.574 28.456 39.778 28.216C39.982 27.964 40.264 27.748 40.624 27.568C40.984 27.376 41.44 27.28 41.992 27.28C42.724 27.28 43.324 27.448 43.792 27.784C44.272 28.108 44.626 28.54 44.854 29.08C45.094 29.62 45.214 30.202 45.214 30.826V37H42.82V31.15C42.82 30.634 42.676 30.19 42.388 29.818C42.1 29.446 41.668 29.26 41.092 29.26C40.648 29.26 40.288 29.374 40.012 29.602C39.736 29.818 39.532 30.1 39.4 30.448C39.28 30.796 39.22 31.162 39.22 31.546V37H36.826ZM55.4436 37.18C54.6636 37.18 54.0216 37.078 53.5176 36.874C53.0136 36.658 52.6116 36.394 52.3116 36.082C52.0236 35.758 51.8076 35.44 51.6636 35.128C51.5196 34.816 51.4236 34.558 51.3756 34.354C51.3396 34.138 51.3216 34.03 51.3216 34.03H53.5896C53.5896 34.03 53.6076 34.096 53.6436 34.228C53.6916 34.36 53.7756 34.516 53.8956 34.696C54.0276 34.864 54.2256 35.014 54.4896 35.146C54.7536 35.278 55.1016 35.344 55.5336 35.344C56.0496 35.344 56.4216 35.236 56.6496 35.02C56.8776 34.792 56.9916 34.54 56.9916 34.264C56.9916 34 56.8896 33.79 56.6856 33.634C56.4936 33.466 56.2056 33.34 55.8216 33.256L54.5076 32.986C53.9796 32.878 53.4876 32.722 53.0316 32.518C52.5756 32.302 52.2036 32.014 51.9156 31.654C51.6276 31.282 51.4836 30.808 51.4836 30.232C51.4836 29.38 51.8076 28.678 52.4556 28.126C53.1036 27.562 53.9856 27.28 55.1016 27.28C55.8096 27.28 56.3916 27.376 56.8476 27.568C57.3156 27.76 57.6876 28 57.9636 28.288C58.2516 28.576 58.4616 28.864 58.5936 29.152C58.7376 29.44 58.8276 29.686 58.8636 29.89C58.9116 30.082 58.9356 30.178 58.9356 30.178H56.7396C56.7396 30.178 56.7216 30.124 56.6856 30.016C56.6496 29.896 56.5716 29.764 56.4516 29.62C56.3436 29.476 56.1756 29.35 55.9476 29.242C55.7316 29.122 55.4376 29.062 55.0656 29.062C54.5616 29.062 54.2016 29.17 53.9856 29.386C53.7816 29.602 53.6796 29.83 53.6796 30.07C53.6796 30.334 53.7936 30.538 54.0216 30.682C54.2496 30.826 54.5436 30.934 54.9036 31.006L56.1456 31.276C57.0336 31.456 57.7596 31.768 58.3236 32.212C58.8996 32.656 59.1876 33.298 59.1876 34.138C59.1876 34.702 59.0376 35.218 58.7376 35.686C58.4496 36.142 58.0236 36.508 57.4596 36.784C56.9076 37.048 56.2356 37.18 55.4436 37.18ZM65.0643 27.28C65.6763 27.28 66.1803 27.382 66.5763 27.586C66.9723 27.778 67.2843 27.994 67.5123 28.234C67.7403 28.462 67.8963 28.648 67.9803 28.792H68.0883V27.46H70.4823V37H68.0883V35.668H67.9803C67.8963 35.812 67.7403 36.004 67.5123 36.244C67.2843 36.484 66.9723 36.7 66.5763 36.892C66.1803 37.084 65.6763 37.18 65.0643 37.18C64.3563 37.18 63.7383 37.042 63.2103 36.766C62.6823 36.478 62.2383 36.1 61.8783 35.632C61.5303 35.152 61.2663 34.618 61.0863 34.03C60.9183 33.442 60.8343 32.842 60.8343 32.23C60.8343 31.618 60.9183 31.018 61.0863 30.43C61.2663 29.842 61.5303 29.314 61.8783 28.846C62.2383 28.366 62.6823 27.988 63.2103 27.712C63.7383 27.424 64.3563 27.28 65.0643 27.28ZM65.6943 29.242C65.1543 29.242 64.6983 29.392 64.3263 29.692C63.9663 29.98 63.6963 30.352 63.5163 30.808C63.3363 31.264 63.2463 31.738 63.2463 32.23C63.2463 32.722 63.3363 33.196 63.5163 33.652C63.6963 34.108 63.9663 34.486 64.3263 34.786C64.6983 35.074 65.1543 35.218 65.6943 35.218C66.2343 35.218 66.6843 35.074 67.0443 34.786C67.4043 34.486 67.6743 34.108 67.8543 33.652C68.0343 33.196 68.1243 32.722 68.1243 32.23C68.1243 31.738 68.0343 31.264 67.8543 30.808C67.6743 30.352 67.4043 29.98 67.0443 29.692C66.6843 29.392 66.2343 29.242 65.6943 29.242ZM75.2849 37L71.7389 27.46H74.1689L76.5629 34.264L78.9209 27.46H81.3509L77.7869 37H75.2849ZM87.2635 37.18C86.2195 37.18 85.3315 36.946 84.5995 36.478C83.8675 36.01 83.3095 35.404 82.9255 34.66C82.5535 33.904 82.3675 33.094 82.3675 32.23C82.3675 31.366 82.5535 30.562 82.9255 29.818C83.3095 29.062 83.8675 28.45 84.5995 27.982C85.3315 27.514 86.2195 27.28 87.2635 27.28C88.3195 27.28 89.2075 27.514 89.9275 27.982C90.6595 28.45 91.2115 29.062 91.5835 29.818C91.9675 30.562 92.1595 31.366 92.1595 32.23C92.1595 33.094 91.9675 33.904 91.5835 34.66C91.2115 35.404 90.6595 36.01 89.9275 36.478C89.2075 36.946 88.3195 37.18 87.2635 37.18ZM87.2635 35.182C87.8035 35.182 88.2535 35.044 88.6135 34.768C88.9855 34.492 89.2675 34.132 89.4595 33.688C89.6515 33.232 89.7475 32.746 89.7475 32.23C89.7475 31.702 89.6515 31.216 89.4595 30.772C89.2675 30.328 88.9855 29.968 88.6135 29.692C88.2535 29.416 87.8035 29.278 87.2635 29.278C86.7355 29.278 86.2855 29.416 85.9135 29.692C85.5415 29.968 85.2595 30.328 85.0675 30.772C84.8755 31.216 84.7795 31.702 84.7795 32.23C84.7795 32.746 84.8755 33.232 85.0675 33.688C85.2595 34.132 85.5415 34.492 85.9135 34.768C86.2855 35.044 86.7355 35.182 87.2635 35.182ZM95.6937 25.984C95.2737 25.984 94.9257 25.846 94.6497 25.57C94.3857 25.294 94.2537 24.964 94.2537 24.58C94.2537 24.196 94.3857 23.866 94.6497 23.59C94.9257 23.314 95.2737 23.176 95.6937 23.176C96.1137 23.176 96.4617 23.314 96.7377 23.59C97.0137 23.866 97.1517 24.196 97.1517 24.58C97.1517 24.964 97.0137 25.294 96.7377 25.57C96.4617 25.846 96.1137 25.984 95.6937 25.984ZM94.5057 37V27.46H96.8997V37H94.5057ZM99.3865 37V27.46H101.763V28.774H101.853C102.021 28.402 102.297 28.06 102.681 27.748C103.065 27.436 103.641 27.28 104.409 27.28C104.649 27.28 104.847 27.298 105.003 27.334C105.159 27.358 105.237 27.37 105.237 27.37V29.692C105.237 29.692 105.147 29.68 104.967 29.656C104.799 29.632 104.589 29.62 104.337 29.62C103.497 29.62 102.861 29.854 102.429 30.322C101.997 30.79 101.781 31.546 101.781 32.59V37H99.3865ZM111.203 40.528V27.46H113.597V28.792H113.723C113.807 28.648 113.957 28.456 114.173 28.216C114.401 27.976 114.713 27.76 115.109 27.568C115.505 27.376 116.009 27.28 116.621 27.28C117.341 27.28 117.965 27.424 118.493 27.712C119.021 27.988 119.459 28.366 119.807 28.846C120.155 29.314 120.413 29.842 120.581 30.43C120.761 31.018 120.851 31.618 120.851 32.23C120.851 32.842 120.761 33.442 120.581 34.03C120.413 34.618 120.155 35.152 119.807 35.632C119.459 36.1 119.021 36.478 118.493 36.766C117.965 37.042 117.341 37.18 116.621 37.18C116.009 37.18 115.505 37.084 115.109 36.892C114.713 36.688 114.401 36.466 114.173 36.226C113.957 35.986 113.807 35.8 113.723 35.668H113.597V40.528H111.203ZM113.561 32.23C113.561 32.722 113.651 33.196 113.831 33.652C114.011 34.108 114.281 34.486 114.641 34.786C115.001 35.074 115.451 35.218 115.991 35.218C116.543 35.218 116.999 35.074 117.359 34.786C117.719 34.486 117.989 34.108 118.169 33.652C118.349 33.196 118.439 32.722 118.439 32.23C118.439 31.738 118.349 31.264 118.169 30.808C117.989 30.352 117.719 29.98 117.359 29.692C116.999 29.392 116.543 29.242 115.991 29.242C115.451 29.242 115.001 29.392 114.641 29.692C114.281 29.98 114.011 30.352 113.831 30.808C113.651 31.264 113.561 31.738 113.561 32.23ZM123.051 37L123.069 23.32H125.445V37H123.051ZM130.887 37.18C129.891 37.18 129.135 36.874 128.619 36.262C128.115 35.65 127.863 34.864 127.863 33.904V27.46H130.239V33.508C130.239 34.024 130.377 34.438 130.653 34.75C130.929 35.05 131.319 35.2 131.823 35.2C132.267 35.2 132.627 35.086 132.903 34.858C133.179 34.63 133.377 34.336 133.497 33.976C133.629 33.616 133.695 33.244 133.695 32.86V27.46H136.089V37H133.695V35.632H133.587C133.467 35.848 133.293 36.076 133.065 36.316C132.849 36.556 132.561 36.76 132.201 36.928C131.853 37.096 131.415 37.18 130.887 37.18ZM142.174 37.18C141.394 37.18 140.752 37.078 140.248 36.874C139.744 36.658 139.342 36.394 139.042 36.082C138.754 35.758 138.538 35.44 138.394 35.128C138.25 34.816 138.154 34.558 138.106 34.354C138.07 34.138 138.052 34.03 138.052 34.03H140.32C140.32 34.03 140.338 34.096 140.374 34.228C140.422 34.36 140.506 34.516 140.626 34.696C140.758 34.864 140.956 35.014 141.22 35.146C141.484 35.278 141.832 35.344 142.264 35.344C142.78 35.344 143.152 35.236 143.38 35.02C143.608 34.792 143.722 34.54 143.722 34.264C143.722 34 143.62 33.79 143.416 33.634C143.224 33.466 142.936 33.34 142.552 33.256L141.238 32.986C140.71 32.878 140.218 32.722 139.762 32.518C139.306 32.302 138.934 32.014 138.646 31.654C138.358 31.282 138.214 30.808 138.214 30.232C138.214 29.38 138.538 28.678 139.186 28.126C139.834 27.562 140.716 27.28 141.832 27.28C142.54 27.28 143.122 27.376 143.578 27.568C144.046 27.76 144.418 28 144.694 28.288C144.982 28.576 145.192 28.864 145.324 29.152C145.468 29.44 145.558 29.686 145.594 29.89C145.642 30.082 145.666 30.178 145.666 30.178H143.47C143.47 30.178 143.452 30.124 143.416 30.016C143.38 29.896 143.302 29.764 143.182 29.62C143.074 29.476 142.906 29.35 142.678 29.242C142.462 29.122 142.168 29.062 141.796 29.062C141.292 29.062 140.932 29.17 140.716 29.386C140.512 29.602 140.41 29.83 140.41 30.07C140.41 30.334 140.524 30.538 140.752 30.682C140.98 30.826 141.274 30.934 141.634 31.006L142.876 31.276C143.764 31.456 144.49 31.768 145.054 32.212C145.63 32.656 145.918 33.298 145.918 34.138C145.918 34.702 145.768 35.218 145.468 35.686C145.18 36.142 144.754 36.508 144.19 36.784C143.638 37.048 142.966 37.18 142.174 37.18Z" fill="white"/>
<path d="M177.703 31.1824C177.892 31.0066 178 30.7605 178 30.5027C178 30.2449 177.892 30.0027 177.703 29.823L170.631 23.2601C170.246 22.9007 169.635 22.9163 169.269 23.2913C168.904 23.6663 168.916 24.2601 169.301 24.6156L174.629 29.5651H160.964C160.43 29.5651 160 29.9831 160 30.5027C160 31.0223 160.43 31.4403 160.964 31.4403H174.629L169.297 36.3859C168.912 36.7453 168.9 37.3352 169.265 37.7102C169.631 38.0852 170.242 38.0969 170.627 37.7414L177.699 31.1785L177.703 31.1824Z" fill="white"/>
</svg>
