<svg width="48" height="48" viewBox="0 0 48 48" fill="none" xmlns="http://www.w3.org/2000/svg">
<path fill-rule="evenodd" clip-rule="evenodd" d="M10.6738 43.4356C10.3146 43.4006 9.95861 43.3514 9.6073 43.2885C9.0792 43.194 8.6418 42.8246 8.46017 42.3198C8.27853 41.815 8.38033 41.2516 8.72713 40.8423C9.53374 39.8903 10.1051 38.7369 10.3564 37.4697C10.4021 37.2393 10.3114 36.8364 9.84742 36.3847C6.54919 33.1743 4.5 28.8171 4.5 24C4.5 13.9387 13.356 6 24 6C34.644 6 43.5 13.9387 43.5 24C43.5 34.0613 34.644 42 24 42C22.3336 42 20.7138 41.8069 19.1663 41.4426C17.0889 42.7461 14.6306 43.5 12 43.5C11.5529 43.5 11.1103 43.4782 10.6738 43.4356Z" fill="#142181"/>
</svg>
