<svg width="48" height="48" viewBox="0 0 48 48" fill="none" xmlns="http://www.w3.org/2000/svg">
<path fill-rule="evenodd" clip-rule="evenodd" d="M4.5 12C4.5 8.68629 7.18629 6 10.5 6H37.5C40.8137 6 43.5 8.68629 43.5 12V36C43.5 39.3137 40.8137 42 37.5 42H10.5C7.18629 42 4.5 39.3137 4.5 36V12ZM12.4393 13.9393C13.0251 13.3536 13.9749 13.3536 14.5607 13.9393L19.0607 18.4393C19.6464 19.0251 19.6464 19.9749 19.0607 20.5607L14.5607 25.0607C13.9749 25.6464 13.0251 25.6464 12.4393 25.0607C11.8536 24.4749 11.8536 23.5251 12.4393 22.9393L15.8787 19.5L12.4393 16.0607C11.8536 15.4749 11.8536 14.5251 12.4393 13.9393ZM21 22.5C20.1716 22.5 19.5 23.1716 19.5 24C19.5 24.8284 20.1716 25.5 21 25.5H27C27.8284 25.5 28.5 24.8284 28.5 24C28.5 23.1716 27.8284 22.5 27 22.5H21Z" fill="#142181"/>
</svg>
