<svg xmlns="http://www.w3.org/2000/svg" viewBox="0 0 24 24" fill="none">
  <circle cx="12" cy="8.25" r="3.25" stroke="#142181" stroke-width="1.8"/>
  <path d="M12 4L6.1 10.55L8.4 13.1L12 9.1L15.6 13.1L17.9 10.55L12 4Z" fill="#142181"/>
  <path d="M8.4 13.1L5.5 9.9L3.75 11.65L7.9 16.25L10.35 14.1L8.4 13.1Z" fill="#142181"/>
  <path d="M15.6 13.1L18.5 9.9L20.25 11.65L16.1 16.25L13.65 14.1L15.6 13.1Z" fill="#142181"/>
  <circle cx="12" cy="16.35" r="5.15" fill="#142181"/>
  <path d="M12 12.75L13.08 15.02L15.55 15.33L13.72 17.05L14.19 19.48L12 18.3L9.81 19.48L10.28 17.05L8.45 15.33L10.92 15.02L12 12.75Z" fill="#fffaf5"/>
</svg>
