<svg width="48" height="48" viewBox="0 0 48 48" fill="none" xmlns="http://www.w3.org/2000/svg">
<path fill-rule="evenodd" clip-rule="evenodd" d="M13.4995 27C17.6417 27 20.9995 30.3578 20.9995 34.5C20.9995 40.299 16.2985 45 10.4995 45C6.6065 44.9999 3.21046 42.8801 1.39892 39.7393C1.12245 39.2598 1.13279 38.6671 1.42529 38.1973C1.71784 37.7275 2.24514 37.4567 2.79736 37.4932C2.86435 37.4976 2.93176 37.5 2.99951 37.5C4.60461 37.5 5.91528 36.2394 5.9956 34.6543L6.00927 34.1143C6.21002 30.1515 9.48687 27.0002 13.4995 27ZM19.9829 18.7803C24.1575 20.5038 27.4945 23.8421 29.2183 28.0166C27.7594 29.1362 26.2164 30.1513 24.5991 31.0498L23.5933 31.6084C22.5999 28.1348 19.8648 25.3994 16.3911 24.4062L16.9507 23.4014C17.8493 21.7838 18.8631 20.2393 19.9829 18.7803ZM41.1977 3C43.2977 3.00033 45.0005 4.70274 45.0005 6.80273C45.0005 7.55337 44.7781 8.2875 44.3618 8.91211L37.5893 19.0703C35.6888 21.921 33.4118 24.486 30.8315 26.7041C28.9273 22.4772 25.5224 19.0721 21.2954 17.168C23.5135 14.5878 26.0794 12.3116 28.9302 10.4111L39.0884 3.63867C39.7129 3.22241 40.4472 3 41.1977 3Z" fill="#142181"/>
</svg>
