<svg width="49" height="48" viewBox="0 0 49 48" fill="none" xmlns="http://www.w3.org/2000/svg">
<path fill-rule="evenodd" clip-rule="evenodd" d="M17.5 6.85714C18.2813 6.85714 18.968 7.36453 19.1827 8.10048L21.0801 14.6061C21.9106 17.4536 24.1828 19.6794 27.0897 20.4929L33.7308 22.3517C34.482 22.5619 35 23.2346 35 24C35 24.7654 34.482 25.4381 33.7308 25.6483L27.0897 27.5071C24.1828 28.3206 21.9106 30.5465 21.0801 33.3939L19.1827 39.8995C18.968 40.6355 18.2813 41.1429 17.5 41.1429C16.7187 41.1429 16.032 40.6355 15.8173 39.8995L13.9199 33.3939C13.0894 30.5465 10.8172 28.3206 7.91034 27.5071L1.26924 25.6483C0.51796 25.4381 0 24.7654 0 24C0 23.2346 0.51796 22.5619 1.26924 22.3517L7.91035 20.4929C10.8172 19.6794 13.0894 17.4535 13.9199 14.6061L15.8173 8.10048C16.032 7.36453 16.7187 6.85714 17.5 6.85714Z" fill="#142181"/>
<path fill-rule="evenodd" clip-rule="evenodd" d="M38.5 0C39.303 0 40.003 0.535367 40.1978 1.29851L40.8018 3.66528C41.3504 5.81499 43.0639 7.49349 45.2584 8.03092L47.6744 8.62261C48.4535 8.8134 49 9.49908 49 10.2857C49 11.0723 48.4535 11.758 47.6744 11.9488L45.2584 12.5405C43.0639 13.0779 41.3504 14.7564 40.8018 16.9061L40.1978 19.2729C40.003 20.0361 39.303 20.5714 38.5 20.5714C37.697 20.5714 36.997 20.0361 36.8022 19.2729L36.1982 16.9061C35.6496 14.7564 33.9361 13.0779 31.7416 12.5405L29.3256 11.9488C28.5465 11.758 28 11.0723 28 10.2857C28 9.49908 28.5465 8.8134 29.3256 8.62261L31.7416 8.03092C33.9361 7.49349 35.6496 5.81499 36.1982 3.66528L36.8022 1.29851C36.997 0.535367 37.697 0 38.5 0Z" fill="#142181"/>
<path fill-rule="evenodd" clip-rule="evenodd" d="M35 30.8571C35.7533 30.8571 36.422 31.3293 36.6602 32.0293L37.5801 34.7327C37.9285 35.7565 38.7486 36.5599 39.7937 36.9011L42.5534 37.8023C43.268 38.0356 43.75 38.6907 43.75 39.4286C43.75 40.1665 43.268 40.8215 42.5534 41.0549L39.7937 41.956C38.7486 42.2973 37.9285 43.1006 37.5801 44.1244L36.6602 46.8278C36.422 47.5278 35.7533 48 35 48C34.2467 48 33.578 47.5278 33.3398 46.8278L32.4199 44.1244C32.0715 43.1006 31.2514 42.2973 30.2063 41.956L27.4466 41.0549C26.732 40.8215 26.25 40.1665 26.25 39.4286C26.25 38.6907 26.732 38.0356 27.4466 37.8023L30.2063 36.9011C31.2514 36.5599 32.0715 35.7565 32.4199 34.7327L33.3398 32.0293C33.578 31.3293 34.2467 30.8571 35 30.8571Z" fill="#142181"/>
</svg>
